<svg width="7" height="14" viewBox="0 0 7 14" fill="none" xmlns="http://www.w3.org/2000/svg">
<path d="M6.7438 13.2279C6.90784 13.0536 7 12.8172 7 12.5708C7 12.3244 6.90784 12.088 6.7438 11.9137L2.11218 6.99439L6.7438 2.07507C6.90319 1.89978 6.99139 1.66501 6.9894 1.42133C6.98741 1.17764 6.89538 0.944534 6.73314 0.772216C6.5709 0.599897 6.35143 0.502153 6.12199 0.500035C5.89256 0.497918 5.67152 0.591596 5.50648 0.760894L0.256201 6.3373C0.092155 6.51159 0 6.74794 0 6.99439C0 7.24083 0.092155 7.47719 0.256201 7.65148L5.50648 13.2279C5.67058 13.4021 5.89311 13.5 6.12514 13.5C6.35717 13.5 6.5797 13.4021 6.7438 13.2279Z" fill="white"/>
</svg>
