<svg width="7" height="14" viewBox="0 0 7 14" fill="none" xmlns="http://www.w3.org/2000/svg">
<path d="M0.256202 13.2073C0.092156 13.0265 0 12.7812 0 12.5255C0 12.2698 0.092156 12.0245 0.256202 11.8436L4.88782 6.73902L0.256202 1.6344C0.0968051 1.45251 0.00860538 1.2089 0.0105991 0.95603C0.0125928 0.703165 0.10462 0.461279 0.266861 0.28247C0.429102 0.10366 0.648575 0.00223379 0.878009 3.64571e-05C1.10744 -0.00216087 1.32848 0.0950467 1.49352 0.270722L6.7438 6.05718C6.90785 6.23804 7 6.48329 7 6.73902C7 6.99475 6.90785 7.24001 6.7438 7.42086L1.49352 13.2073C1.32942 13.3881 1.10689 13.4897 0.87486 13.4897C0.642829 13.4897 0.420297 13.3881 0.256202 13.2073Z" fill="#535353"/>
</svg>
