<svg width="20" height="14" viewBox="0 0 20 14" fill="none" xmlns="http://www.w3.org/2000/svg">
<path d="M12.6281 13.896C12.4227 13.896 12.2172 13.8246 12.055 13.6718C11.7414 13.3763 11.7414 12.8872 12.055 12.5917L18.0456 6.9467L12.055 1.30171C11.7414 1.00622 11.7414 0.517119 12.055 0.221622C12.3686 -0.0738741 12.8876 -0.0738741 13.2012 0.221622L19.7649 6.40665C20.0785 6.70215 20.0785 7.19124 19.7649 7.48674L13.2012 13.6718C13.039 13.8246 12.8336 13.896 12.6281 13.896Z" fill="#535353"/>
<path d="M19.0098 7.71056H0.810999C0.367653 7.71056 0 7.36411 0 6.94634C0 6.52857 0.367653 6.18213 0.810999 6.18213H19.0098C19.4532 6.18213 19.8208 6.52857 19.8208 6.94634C19.8208 7.36411 19.4532 7.71056 19.0098 7.71056Z" fill="#535353"/>
</svg>
